<svg width="24" height="24" viewBox="0 0 24 24" fill="none" xmlns="http://www.w3.org/2000/svg">
<rect width="24" height="24" rx="0.6" fill="white"/>
<path d="M21.8099 8.34679L20.3115 9.16613L19.4922 10.6645L18.6727 9.16613L17.1743 8.34679L18.6727 7.52742L19.4922 6.02905L20.3115 7.52742L21.8099 8.34679Z" fill="#F7D694"/>
<path d="M9.01399 19.0099L7.51562 19.8292L6.69632 21.3276L5.87678 19.8292L4.37842 19.0099L5.87678 18.1905L6.69632 16.6921L7.51562 18.1905L9.01399 19.0099Z" fill="#F7D694"/>
<path d="M15.3564 11.3324L12.7548 12.7549L11.3324 15.3562L9.90995 12.7549L7.30859 11.3324L9.90995 9.90997L11.3324 7.30859L12.7548 9.90997L15.3564 11.3324Z" fill="#FCD884"/>
<path d="M18.8243 19.4923L17.3259 20.3117L16.5066 21.81L15.6873 20.3117L14.189 19.4923L15.6873 18.6729L16.5066 17.1746L17.3259 18.6729L18.8243 19.4923Z" fill="#FFCD02"/>
<path d="M6.82526 4.50767L5.32689 5.32702L4.5076 6.82541L3.6883 5.32702L2.18994 4.50767L3.6883 3.68833L4.5076 2.18994L5.32689 3.68833L6.82526 4.50767Z" fill="#FFCD02"/>
</svg>
