<svg width="301" height="68" viewBox="0 0 301 68" fill="none" xmlns="http://www.w3.org/2000/svg">
<g clip-path="url(#clip0_833_180)">
<path d="M300.197 22.848L296.081 25.0988L293.83 29.215L291.579 25.0988L287.462 22.848L291.579 20.5971L293.83 16.481L296.081 20.5971L300.197 22.848Z" fill="#F7D694"/>
<path d="M265.045 52.1397L260.929 54.3905L258.679 58.5067L256.427 54.3905L252.311 52.1397L256.427 49.8889L258.679 45.7727L260.929 49.8889L265.045 52.1397Z" fill="#F7D694"/>
<path d="M282.467 31.0491L275.321 34.9568L271.413 42.103L267.506 34.9568L260.359 31.0491L267.506 27.1416L271.413 19.9954L275.321 27.1416L282.467 31.0491Z" fill="#FCD884"/>
<path d="M291.995 53.4652L287.879 55.7161L285.628 59.8322L283.377 55.7161L279.261 53.4652L283.377 51.2143L285.628 47.0981L287.879 51.2143L291.995 53.4652Z" fill="#FFCD02"/>
<path d="M259.032 12.3013L254.916 14.5522L252.666 18.6684L250.415 14.5522L246.299 12.3013L250.415 10.0505L252.666 5.93433L254.916 10.0505L259.032 12.3013Z" fill="#FFCD02"/>
<path d="M39.2699 55.3467H34.5198L27.7695 41.9712L21.5193 55.3467H16.8316L1.39355 24.8456H8.14378L19.0817 46.9714L24.3944 35.221L19.0817 24.8456H25.8944L36.7698 46.9714L46.8327 24.8456H53.3954L39.2699 55.3467ZM82.2392 55.4092V52.5341C79.3224 54.8675 75.5513 56.0343 70.9265 56.0343C65.6761 56.0343 61.5093 54.4717 58.4259 51.3466C55.5508 48.4298 54.1132 44.7005 54.1132 40.1587C54.1132 35.4918 55.5716 31.7 58.4883 28.7833C61.6135 25.6582 65.8428 24.0956 71.176 24.0956C75.5928 24.0956 79.2808 25.2206 82.2392 27.4707V24.2206H88.2392V55.4092H82.2392ZM79.3019 32.2834C77.3847 30.3667 74.5722 29.4083 70.8638 29.4083C67.447 29.4083 64.7594 30.45 62.801 32.5334C61.0093 34.4918 60.1135 37.0336 60.1135 40.1587C60.1135 43.2838 61.0093 45.7839 62.801 47.6589C64.7178 49.7006 67.4054 50.7215 70.8638 50.7215C74.3219 50.7215 77.0724 49.7215 79.1144 47.7215C81.1974 45.7214 82.2392 43.2005 82.2392 40.1587C82.2392 36.8252 81.2601 34.2001 79.3019 32.2834ZM118.519 55.3467V35.7835C118.519 31.5333 115.769 29.4083 110.269 29.4083C107.143 29.4083 104.706 30.2416 102.956 31.9084C101.248 33.5334 100.393 35.6793 100.393 38.3461V55.3467H94.3933V24.7206H100.393V26.7832C103.018 24.9914 106.289 24.0956 110.206 24.0956C114.206 24.0956 117.498 24.9706 120.081 26.7206C123.04 28.7208 124.519 31.5542 124.519 35.221V55.3467H118.519ZM156.607 55.4092V52.4091C153.69 54.8259 149.919 56.0343 145.294 56.0343C140.044 56.0343 135.877 54.4091 132.794 51.1591C129.919 48.1589 128.481 44.3047 128.481 39.5962C128.481 34.7626 129.939 30.8459 132.856 27.8457C135.94 24.5956 140.169 22.9706 145.544 22.9706C149.961 22.9706 153.649 24.1372 156.607 26.4707V12.9702H162.607V55.4092H156.607ZM153.669 31.4084C151.753 29.4083 148.94 28.4082 145.232 28.4082C141.857 28.4082 139.211 29.4708 137.294 31.5959C135.419 33.6793 134.481 36.346 134.481 39.5962C134.481 42.8463 135.377 45.4505 137.169 47.4089C139.086 49.534 141.774 50.5966 145.232 50.5966C148.69 50.5966 151.44 49.5548 153.482 47.4714C155.565 45.388 156.607 42.7629 156.607 39.5962C156.607 36.1377 155.628 33.4084 153.669 31.4084ZM177.261 33.4709C175.594 35.846 174.761 38.9503 174.761 42.7837V55.3467H168.761V24.7206H174.761V27.5332C177.72 25.2414 182.157 24.0956 188.074 24.0956V29.4083C182.741 29.4083 179.136 30.7625 177.261 33.4709ZM191.784 55.3467V12.9702H197.784V55.3467H191.784ZM217.144 66.5346C213.186 66.5346 209.894 65.7846 207.268 64.2845C203.977 62.4095 202.164 58.826 201.831 53.5342H207.769C208.061 56.4093 208.977 58.4093 210.519 59.5344C211.894 60.5761 214.144 61.0969 217.269 61.0969C223.686 61.0969 227.082 58.8677 227.457 54.4091C224.79 56.2426 221.54 57.1593 217.706 57.1593C213.54 57.1593 210.165 56.1801 207.581 54.2216C204.789 52.0549 203.394 48.9715 203.394 44.9713V24.8456H209.394V44.9088C209.394 49.409 212.164 51.6591 217.706 51.6591C224.248 51.6591 227.52 48.3881 227.52 41.8462V24.8456H233.52V53.4091C233.52 57.7426 232.082 61.0136 229.207 63.222C226.374 65.4304 222.352 66.5346 217.144 66.5346Z" fill="white"/>
</g>
<defs>
<clipPath id="clip0_833_180">
<rect width="300" height="66.8182" fill="white" transform="translate(0.795898 0.59082)"/>
</clipPath>
</defs>
</svg>
